# xmcd
#
# Track frame offsets:
#	150
#	16000
#	29066
#	44636
#	57857
#	76323
#	89879
#	102771
#	115346
#	128575
#	137701
#
# Disc length: 2005 seconds
#
# Revision: 1
# Processed by: cddbd v1.5.2PL0 Copyright (c) Steve Scherf et al.
# Submitted via: audiograbber 1.83.01
#
DISCID=9207d30b
DTITLE=Don Williams - Harmony (Dot-Vinyl)
DYEAR=1976
DGENRE=Country
TTITLE0=Till The Rivers All Run Dry
TTITLE1=You Keep Coming 'Round
TTITLE2=Don't You Think It's Time
TTITLE3=I Don't Want the Money
TTITLE4=Where the Arkansas River Leaves Oklahoma
TTITLE5=Say It Again
TTITLE6=Maybe I Just Don't Know
TTITLE7=Magic Carpet
TTITLE8=Time
TTITLE9=Ramblin' (Instrumental)
TTITLE10=She Never Knew Me
EXTD=
EXTT0=
EXTT1=
EXTT2=
EXTT3=
EXTT4=
EXTT5=
EXTT6=
EXTT7=
EXTT8=
EXTT9=
EXTT10=
PLAYORDER=
